# xmcd CD database file
#
# Track frame offsets:
#	150
#	13617
#	27769
#	41018
#	54345
#	70252
#	81074
#	95172
#	108042
#	121604
#	135727
#	147848
#	159886
#	182987
#	195742
#	210516
#	225284
#	238383
#	250284
#	267387
#
# Disc length: 3742 seconds
#
# Revision: 0
# Processed by: cddbd v1.5.2PL0 Copyright (c) Steve Scherf et al.
# Submitted via: CDex 1.51
#
DISCID=0c0e9c14
DTITLE=Various Artist - Pioneers of Jazz Guitar 1927-1948
DYEAR=1900
DGENRE=Jazz
TTITLE0=Wild Cat - Eddie Lang
TTITLE1=Handful of Riffs - Lonnie Johnson and Eddie Lang
TTITLE2=Steppin' On The Blues - Lonnie Johnson
TTITLE3=Stage Fright - Carl Kress and Dick McDonough
TTITLE4=I've Got The World On A String - Teddy Bunn
TTITLE5=Heat Wave - Carl Kress and Dick McDonough
TTITLE6=A Study In Brown - John Cali and Tony Gattuso
TTITLE7=Nagasaki - Django Reinhardt
TTITLE8=Violetta - John Cali and Tony Gattuso
TTITLE9=Blues Without Words - Teddy Bunn
TTITLE10=Buck Jumpin' - Al Casey
TTITLE11=That's All - Sister Rosetta Tharpe
TTITLE12=Waiting For Benny - Charlie Christian
TTITLE13=Swing 42 - Jean "Matlo" Ferret
TTITLE14=At Sundown - George Van Eps
TTITLE15=Doctor Keets - Bill De Arango
TTITLE16=Hot In Harlem - Tiny Grimes
TTITLE17=You're Gonna Get My Letter - Mary Osborne
TTITLE18=Body And Soul - Nat King Cole Trio w/ O. Moore
TTITLE19=For Sentimental Reasons - Django Reinhardt
EXTD=
EXTT0=
EXTT1=
EXTT2=
EXTT3=
EXTT4=
EXTT5=
EXTT6=
EXTT7=
EXTT8=
EXTT9=
EXTT10=
EXTT11=
EXTT12=
EXTT13=
EXTT14=
EXTT15=
EXTT16=
EXTT17=
EXTT18=
EXTT19=
PLAYORDER=
